# xmcd CD database file
#
# Track frame offsets:
#	150
#	8862
#	38317
#	62662
#	100037
#	126472
#	146920
#	158452
#	188700
#
# Disc length: 2733 seconds
#
# Revision: 3
# Processed by: cddbd v1.5.2PL0 Copyright (c) Steve Scherf et al.
# Submitted via: CDex 1.70beta3
#
DISCID=6c0aab09
DTITLE=Kazumi Watanabe - Kylyn
DYEAR=1979
DGENRE=Jazz
TTITLE0=199X
TTITLE1=Sonic Boom
TTITLE2=Water Ways Flow Back Ward Again
TTITLE3=Milestones
TTITLE4=E-Day Project
TTITLE5=Akasaka Moon
TTITLE6=Kylyn
TTITLE7=I'll Be There
TTITLE8=Mother Terra
EXTD=YEAR: 1979
EXTT0=
EXTT1=
EXTT2=
EXTT3=
EXTT4=
EXTT5=
EXTT6=
EXTT7=
EXTT8=
PLAYORDER=
